<svg xmlns="http://www.w3.org/2000/svg" xmlns:xlink="http://www.w3.org/1999/xlink" contentStyleType="text/css" data-diagram-type="CLASS" height="789px" preserveAspectRatio="none" style="width:1089px;height:789px;background:#FFFFFF;" version="1.1" viewBox="0 0 1089 789" width="1089px" zoomAndPan="magnify"><defs/><g><!--class User--><g class="entity" data-entity="User" data-source-line="6" data-uid="ent0002" id="entity_User"><rect fill="#FFFFFF" height="123.7813" rx="2.5" ry="2.5" style="stroke:#000000;stroke-width:1;" width="315.792" x="500.5" y="126"/><text fill="#000000" font-family="Verdana" font-size="14" lengthAdjust="spacing" textLength="31.9102" x="642.4409" y="143.9951">User</text><line style="stroke:#000000;stroke-width:1;" x1="501.5" x2="815.292" y1="152.2969" y2="152.2969"/><ellipse cx="511.5" cy="165.9453" fill="#FFFFFF" rx="3" ry="3" style="stroke:#000000;stroke-width:1;"/><text fill="#000000" font-family="Verdana" font-size="14" lengthAdjust="spacing" textLength="85.7021" x="518.5" y="169.292">Id: uuid [PK]</text><line style="stroke:#000000;stroke-width:1;" x1="501.5" x2="815.292" y1="176.5938" y2="176.5938"/><ellipse cx="511.5" cy="190.2422" fill="#FFFFFF" rx="3" ry="3" style="stroke:#000000;stroke-width:1;"/><text fill="#000000" font-family="Verdana" font-size="14" lengthAdjust="spacing" textLength="209.5146" x="518.5" y="193.5889">Email: varchar(255) [UNIQUE]</text><ellipse cx="511.5" cy="206.5391" fill="#FFFFFF" rx="3" ry="3" style="stroke:#000000;stroke-width:1;"/><text fill="#000000" font-family="Verdana" font-size="14" lengthAdjust="spacing" textLength="201.8789" x="518.5" y="209.8857">PasswordHash: varchar(255)</text><ellipse cx="511.5" cy="222.8359" fill="#FFFFFF" rx="3" ry="3" style="stroke:#000000;stroke-width:1;"/><text fill="#000000" font-family="Verdana" font-size="14" lengthAdjust="spacing" textLength="193.2451" x="518.5" y="226.1826">DisplayName: varchar(100)</text><ellipse cx="511.5" cy="239.1328" fill="#FFFFFF" rx="3" ry="3" style="stroke:#000000;stroke-width:1;"/><text fill="#000000" font-family="Verdana" font-size="14" lengthAdjust="spacing" textLength="291.792" x="518.5" y="242.4795">CreatedAt: timestamptz [DEFAULT now()]</text></g><!--class Category--><g class="entity" data-entity="Category" data-source-line="15" data-uid="ent0003" id="entity_Category"><rect fill="#FFFFFF" height="107.4844" rx="2.5" ry="2.5" style="stroke:#000000;stroke-width:1;" width="227.0684" x="12" y="134.5"/><text fill="#000000" font-family="Verdana" font-size="14" lengthAdjust="spacing" textLength="63.9502" x="93.5591" y="152.4951">Category</text><line style="stroke:#000000;stroke-width:1;" x1="13" x2="238.0684" y1="160.7969" y2="160.7969"/><ellipse cx="23" cy="174.4453" fill="#FFFFFF" rx="3" ry="3" style="stroke:#000000;stroke-width:1;"/><text fill="#000000" font-family="Verdana" font-size="14" lengthAdjust="spacing" textLength="85.7021" x="30" y="177.792">Id: uuid [PK]</text><line style="stroke:#000000;stroke-width:1;" x1="13" x2="238.0684" y1="185.0938" y2="185.0938"/><ellipse cx="23" cy="198.7422" fill="#FFFFFF" rx="3" ry="3" style="stroke:#000000;stroke-width:1;"/><text fill="#000000" font-family="Verdana" font-size="14" lengthAdjust="spacing" textLength="203.0684" x="30" y="202.0889">Name: varchar(50) [UNIQUE]</text><ellipse cx="23" cy="215.0391" fill="#FFFFFF" rx="3" ry="3" style="stroke:#000000;stroke-width:1;"/><text fill="#000000" font-family="Verdana" font-size="14" lengthAdjust="spacing" textLength="129.1992" x="30" y="218.3857">Label: varchar(50)</text><ellipse cx="23" cy="231.3359" fill="#FFFFFF" rx="3" ry="3" style="stroke:#000000;stroke-width:1;"/><text fill="#000000" font-family="Verdana" font-size="14" lengthAdjust="spacing" textLength="188.7334" x="30" y="234.6826">SortOrder: int [DEFAULT 0]</text></g><!--class Todo--><g class="entity" data-entity="Todo" data-source-line="23" data-uid="ent0004" id="entity_Todo"><rect fill="#FFFFFF" height="172.6719" rx="2.5" ry="2.5" style="stroke:#000000;stroke-width:1;" width="315.792" x="49.5" y="310"/><text fill="#000000" font-family="Verdana" font-size="14" lengthAdjust="spacing" textLength="34.5693" x="190.1113" y="327.9951">Todo</text><line style="stroke:#000000;stroke-width:1;" x1="50.5" x2="364.292" y1="336.2969" y2="336.2969"/><ellipse cx="60.5" cy="349.9453" fill="#FFFFFF" rx="3" ry="3" style="stroke:#000000;stroke-width:1;"/><text fill="#000000" font-family="Verdana" font-size="14" lengthAdjust="spacing" textLength="85.7021" x="67.5" y="353.292">Id: uuid [PK]</text><line style="stroke:#000000;stroke-width:1;" x1="50.5" x2="364.292" y1="360.5938" y2="360.5938"/><ellipse cx="60.5" cy="374.2422" fill="#FFFFFF" rx="3" ry="3" style="stroke:#000000;stroke-width:1;"/><text fill="#000000" font-family="Verdana" font-size="14" lengthAdjust="spacing" textLength="192.2813" x="67.5" y="377.5889">UserId: uuid [FK -&gt; User.Id]</text><ellipse cx="60.5" cy="390.5391" fill="#FFFFFF" rx="3" ry="3" style="stroke:#000000;stroke-width:1;"/><text fill="#000000" font-family="Verdana" font-size="14" lengthAdjust="spacing" textLength="256.3613" x="67.5" y="393.8857">CategoryId: uuid [FK -&gt; Category.Id]</text><ellipse cx="60.5" cy="406.8359" fill="#FFFFFF" rx="3" ry="3" style="stroke:#000000;stroke-width:1;"/><text fill="#000000" font-family="Verdana" font-size="14" lengthAdjust="spacing" textLength="67.9834" x="67.5" y="410.1826">Text: text</text><ellipse cx="60.5" cy="423.1328" fill="#FFFFFF" rx="3" ry="3" style="stroke:#000000;stroke-width:1;"/><text fill="#000000" font-family="Verdana" font-size="14" lengthAdjust="spacing" textLength="258.4805" x="67.5" y="426.4795">Completed: boolean [DEFAULT false]</text><ellipse cx="60.5" cy="439.4297" fill="#FFFFFF" rx="3" ry="3" style="stroke:#000000;stroke-width:1;"/><text fill="#000000" font-family="Verdana" font-size="14" lengthAdjust="spacing" textLength="291.792" x="67.5" y="442.7764">CreatedAt: timestamptz [DEFAULT now()]</text><text fill="#000000" font-family="Verdana" font-size="14" lengthAdjust="spacing" textLength="189.9844" x="67.5" y="459.0732">DueDate: date [NULLABLE]</text><text fill="#000000" font-family="Verdana" font-size="14" lengthAdjust="spacing" textLength="228.375" x="67.5" y="475.3701">Price: decimal(10,2) [NULLABLE]</text></g><!--class Subtask--><g class="entity" data-entity="Subtask" data-source-line="35" data-uid="ent0005" id="entity_Subtask"><rect fill="#FFFFFF" height="123.7813" rx="2.5" ry="2.5" style="stroke:#000000;stroke-width:1;" width="282.4805" x="66.5" y="543"/><text fill="#000000" font-family="Verdana" font-size="14" lengthAdjust="spacing" textLength="56.1162" x="179.6821" y="560.9951">Subtask</text><line style="stroke:#000000;stroke-width:1;" x1="67.5" x2="347.9805" y1="569.2969" y2="569.2969"/><ellipse cx="77.5" cy="582.9453" fill="#FFFFFF" rx="3" ry="3" style="stroke:#000000;stroke-width:1;"/><text fill="#000000" font-family="Verdana" font-size="14" lengthAdjust="spacing" textLength="85.7021" x="84.5" y="586.292">Id: uuid [PK]</text><line style="stroke:#000000;stroke-width:1;" x1="67.5" x2="347.9805" y1="593.5938" y2="593.5938"/><ellipse cx="77.5" cy="607.2422" fill="#FFFFFF" rx="3" ry="3" style="stroke:#000000;stroke-width:1;"/><text fill="#000000" font-family="Verdana" font-size="14" lengthAdjust="spacing" textLength="197.5996" x="84.5" y="610.5889">TodoId: uuid [FK -&gt; Todo.Id]</text><ellipse cx="77.5" cy="623.5391" fill="#FFFFFF" rx="3" ry="3" style="stroke:#000000;stroke-width:1;"/><text fill="#000000" font-family="Verdana" font-size="14" lengthAdjust="spacing" textLength="67.9834" x="84.5" y="626.8857">Text: text</text><ellipse cx="77.5" cy="639.8359" fill="#FFFFFF" rx="3" ry="3" style="stroke:#000000;stroke-width:1;"/><text fill="#000000" font-family="Verdana" font-size="14" lengthAdjust="spacing" textLength="258.4805" x="84.5" y="643.1826">Completed: boolean [DEFAULT false]</text><ellipse cx="77.5" cy="656.1328" fill="#FFFFFF" rx="3" ry="3" style="stroke:#000000;stroke-width:1;"/><text fill="#000000" font-family="Verdana" font-size="14" lengthAdjust="spacing" textLength="188.7334" x="84.5" y="659.4795">SortOrder: int [DEFAULT 0]</text></g><!--class BudgetEntry--><g class="entity" data-entity="BudgetEntry" data-source-line="44" data-uid="ent0006" id="entity_BudgetEntry"><rect fill="#FFFFFF" height="172.6719" rx="2.5" ry="2.5" style="stroke:#000000;stroke-width:1;" width="352.9795" x="482" y="310"/><text fill="#000000" font-family="Verdana" font-size="14" lengthAdjust="spacing" textLength="87.6025" x="614.6885" y="327.9951">BudgetEntry</text><line style="stroke:#000000;stroke-width:1;" x1="483" x2="833.9795" y1="336.2969" y2="336.2969"/><ellipse cx="493" cy="349.9453" fill="#FFFFFF" rx="3" ry="3" style="stroke:#000000;stroke-width:1;"/><text fill="#000000" font-family="Verdana" font-size="14" lengthAdjust="spacing" textLength="85.7021" x="500" y="353.292">Id: uuid [PK]</text><line style="stroke:#000000;stroke-width:1;" x1="483" x2="833.9795" y1="360.5938" y2="360.5938"/><ellipse cx="493" cy="374.2422" fill="#FFFFFF" rx="3" ry="3" style="stroke:#000000;stroke-width:1;"/><text fill="#000000" font-family="Verdana" font-size="14" lengthAdjust="spacing" textLength="192.2813" x="500" y="377.5889">UserId: uuid [FK -&gt; User.Id]</text><ellipse cx="493" cy="390.5391" fill="#FFFFFF" rx="3" ry="3" style="stroke:#000000;stroke-width:1;"/><text fill="#000000" font-family="Verdana" font-size="14" lengthAdjust="spacing" textLength="328.9795" x="500" y="393.8857">Type: varchar(10) [CHECK: 'income'|'expense']</text><ellipse cx="493" cy="406.8359" fill="#FFFFFF" rx="3" ry="3" style="stroke:#000000;stroke-width:1;"/><text fill="#000000" font-family="Verdana" font-size="14" lengthAdjust="spacing" textLength="164.2881" x="500" y="410.1826">Category: varchar(100)</text><ellipse cx="493" cy="423.1328" fill="#FFFFFF" rx="3" ry="3" style="stroke:#000000;stroke-width:1;"/><text fill="#000000" font-family="Verdana" font-size="14" lengthAdjust="spacing" textLength="270.9355" x="500" y="426.4795">Amount: decimal(12,2) [CHECK: &gt;= 0]</text><ellipse cx="493" cy="439.4297" fill="#FFFFFF" rx="3" ry="3" style="stroke:#000000;stroke-width:1;"/><text fill="#000000" font-family="Verdana" font-size="14" lengthAdjust="spacing" textLength="208.1543" x="500" y="442.7764">Description: text [DEFAULT '']</text><ellipse cx="493" cy="455.7266" fill="#FFFFFF" rx="3" ry="3" style="stroke:#000000;stroke-width:1;"/><text fill="#000000" font-family="Verdana" font-size="14" lengthAdjust="spacing" textLength="74.1973" x="500" y="459.0732">Date: date</text><ellipse cx="493" cy="472.0234" fill="#FFFFFF" rx="3" ry="3" style="stroke:#000000;stroke-width:1;"/><text fill="#000000" font-family="Verdana" font-size="14" lengthAdjust="spacing" textLength="291.792" x="500" y="475.3701">CreatedAt: timestamptz [DEFAULT now()]</text></g><g class="entity" data-entity="GMN11" data-source-line="62" data-uid="ent0012" id="entity_GMN11"><path d="M553.5,11 L553.5,66.3984 A0,0 0 0 0 553.5,66.3984 L654.5,66.3984 L658.5,125.98 L662.5,66.3984 L763.3682,66.3984 A0,0 0 0 0 763.3682,66.3984 L763.3682,21 L753.3682,11 L553.5,11 A0,0 0 0 0 553.5,11" fill="#FFFFFF" style="stroke:#000000;stroke-width:1;"/><path d="M753.3682,11 L753.3682,21 L763.3682,21 L753.3682,11" fill="#FFFFFF" style="stroke:#000000;stroke-width:1;"/><text fill="#000000" font-family="Verdana" font-size="13" lengthAdjust="spacing" textLength="188.8682" x="559.5" y="28.0669">Auth pages exist but no auth</text><text fill="#000000" font-family="Verdana" font-size="13" lengthAdjust="spacing" textLength="171.7866" x="559.5" y="43.1997">context yet &#8212; placeholder</text><text fill="#000000" font-family="Verdana" font-size="13" lengthAdjust="spacing" textLength="168.6382" x="559.5" y="58.3325">for future implementation</text></g><g class="entity" data-entity="GMN14" data-source-line="68" data-uid="ent0015" id="entity_GMN14"><path d="M274,160.5 L274,184 L239.28,188 L274,192 L274,215.8984 A0,0 0 0 0 274,215.8984 L464.5396,215.8984 A0,0 0 0 0 464.5396,215.8984 L464.5396,170.5 L454.5396,160.5 L274,160.5 A0,0 0 0 0 274,160.5" fill="#FFFFFF" style="stroke:#000000;stroke-width:1;"/><path d="M454.5396,160.5 L454.5396,170.5 L464.5396,170.5 L454.5396,160.5" fill="#FFFFFF" style="stroke:#000000;stroke-width:1;"/><text fill="#000000" font-family="Verdana" font-size="13" lengthAdjust="spacing" textLength="99.5439" x="280" y="177.5669">Seeded values:</text><text fill="#000000" font-family="Verdana" font-size="13" lengthAdjust="spacing" textLength="169.5396" x="280" y="192.6997">Todo, Shopping, Personal,</text><text fill="#000000" font-family="Verdana" font-size="13" lengthAdjust="spacing" textLength="85.6299" x="280" y="207.8325">Work, Others</text></g><g class="entity" data-entity="GMN17" data-source-line="74" data-uid="ent0018" id="entity_GMN17"><path d="M870,376.5 L870,393 L835.17,397 L870,401 L870,416.7656 A0,0 0 0 0 870,416.7656 L1082.8008,416.7656 A0,0 0 0 0 1082.8008,416.7656 L1082.8008,386.5 L1072.8008,376.5 L870,376.5 A0,0 0 0 0 870,376.5" fill="#FFFFFF" style="stroke:#000000;stroke-width:1;"/><path d="M1072.8008,376.5 L1072.8008,386.5 L1082.8008,386.5 L1072.8008,376.5" fill="#FFFFFF" style="stroke:#000000;stroke-width:1;"/><text fill="#000000" font-family="Verdana" font-size="13" lengthAdjust="spacing" textLength="188.8936" x="876" y="393.5669">Tracks income and expenses</text><text fill="#000000" font-family="Verdana" font-size="13" lengthAdjust="spacing" textLength="191.8008" x="876" y="408.6997">for user budget management</text></g><g class="entity" data-entity="GMN20" data-source-line="79" data-uid="ent0021" id="entity_GMN20"><path d="M113,727 L113,782.3984 A0,0 0 0 0 113,782.3984 L302.2129,782.3984 A0,0 0 0 0 302.2129,782.3984 L302.2129,737 L292.2129,727 L211.5,727 L207.5,667.1 L203.5,727 L113,727 A0,0 0 0 0 113,727" fill="#FFFFFF" style="stroke:#000000;stroke-width:1;"/><path d="M292.2129,727 L292.2129,737 L302.2129,737 L292.2129,727" fill="#FFFFFF" style="stroke:#000000;stroke-width:1;"/><text fill="#000000" font-family="Verdana" font-size="13" lengthAdjust="spacing" textLength="168.2129" x="119" y="744.0669">Cascade delete with Todo</text><text fill="#000000" font-family="Verdana" font-size="13" lengthAdjust="spacing" textLength="165.166" x="119" y="759.1997">Stored as separate entity</text><text fill="#000000" font-family="Verdana" font-size="13" lengthAdjust="spacing" textLength="141.4067" x="119" y="774.3325">(not embedded JSON)</text></g><!--link User to Todo--><g class="link" data-entity-1="User" data-entity-2="Todo" data-source-line="56" data-uid="lnk7" id="link_User_Todo"><path codeLine="56" d="M492.04,246 C403.87,246 319.75,246 319.75,246 C319.75,246 319.75,258.37 319.75,291.83" fill="none" id="User-Todo" style="stroke:#000000;stroke-width:1;"/><line style="stroke:#000000;stroke-width:1;" x1="496.04" x2="496.04" y1="242" y2="250"/><line style="stroke:#000000;stroke-width:1;" x1="493.04" x2="493.04" y1="242" y2="250"/><line style="stroke:#000000;stroke-width:1;" x1="492.04" x2="500.04" y1="246" y2="246"/><line style="stroke:#000000;stroke-width:1;" x1="319.75" x2="325.75" y1="301.83" y2="309.83"/><line style="stroke:#000000;stroke-width:1;" x1="319.75" x2="313.75" y1="301.83" y2="309.83"/><line style="stroke:#000000;stroke-width:1;" x1="319.75" x2="319.75" y1="301.83" y2="309.83"/><ellipse cx="319.75" cy="295.83" fill="none" rx="4" ry="4" style="stroke:#000000;stroke-width:1;"/><text fill="#000000" font-family="Verdana" font-size="13" lengthAdjust="spacing" textLength="33.5981" x="343.98" y="242.0669">owns</text></g><!--link User to BudgetEntry--><g class="link" data-entity-1="User" data-entity-2="BudgetEntry" data-source-line="57" data-uid="lnk8" id="link_User_BudgetEntry"><path codeLine="57" d="M658.5,258.27 C658.5,276.99 658.5,271.88 658.5,291.88" fill="none" id="User-BudgetEntry" style="stroke:#000000;stroke-width:1;"/><line style="stroke:#000000;stroke-width:1;" x1="654.5" x2="662.5" y1="254.27" y2="254.27"/><line style="stroke:#000000;stroke-width:1;" x1="654.5" x2="662.5" y1="257.27" y2="257.27"/><line style="stroke:#000000;stroke-width:1;" x1="658.5" x2="658.5" y1="258.27" y2="250.27"/><line style="stroke:#000000;stroke-width:1;" x1="658.5" x2="664.5" y1="301.88" y2="309.88"/><line style="stroke:#000000;stroke-width:1;" x1="658.5" x2="652.5" y1="301.88" y2="309.88"/><line style="stroke:#000000;stroke-width:1;" x1="658.5" x2="658.5" y1="301.88" y2="309.88"/><ellipse cx="658.5" cy="295.88" fill="none" rx="4" ry="4" style="stroke:#000000;stroke-width:1;"/><text fill="#000000" font-family="Verdana" font-size="13" lengthAdjust="spacing" textLength="33.5981" x="624.5" y="276.1469">owns</text></g><!--link Category to Todo--><g class="link" data-entity-1="Category" data-entity-2="Todo" data-source-line="58" data-uid="lnk9" id="link_Category_Todo"><path codeLine="58" d="M144.25,249.69 C144.25,270.45 144.25,268.73 144.25,291.82" fill="none" id="Category-Todo" style="stroke:#000000;stroke-width:1;"/><line style="stroke:#000000;stroke-width:1;" x1="140.25" x2="148.25" y1="245.69" y2="245.69"/><line style="stroke:#000000;stroke-width:1;" x1="140.25" x2="148.25" y1="248.69" y2="248.69"/><line style="stroke:#000000;stroke-width:1;" x1="144.25" x2="144.25" y1="249.69" y2="241.69"/><line style="stroke:#000000;stroke-width:1;" x1="144.25" x2="150.25" y1="301.82" y2="309.82"/><line style="stroke:#000000;stroke-width:1;" x1="144.25" x2="138.25" y1="301.82" y2="309.82"/><line style="stroke:#000000;stroke-width:1;" x1="144.25" x2="144.25" y1="301.82" y2="309.82"/><ellipse cx="144.25" cy="295.82" fill="none" rx="4" ry="4" style="stroke:#000000;stroke-width:1;"/><text fill="#000000" font-family="Verdana" font-size="13" lengthAdjust="spacing" textLength="74.9658" x="69.25" y="271.8269">categorizes</text></g><!--link Todo to Subtask--><g class="link" data-entity-1="Todo" data-entity-2="Subtask" data-source-line="59" data-uid="lnk10" id="link_Todo_Subtask"><path codeLine="59" d="M207.5,491.11 C207.5,511.14 207.5,506.06 207.5,524.8" fill="none" id="Todo-Subtask" style="stroke:#000000;stroke-width:1;"/><line style="stroke:#000000;stroke-width:1;" x1="203.5" x2="211.5" y1="487.11" y2="487.11"/><line style="stroke:#000000;stroke-width:1;" x1="203.5" x2="211.5" y1="490.11" y2="490.11"/><line style="stroke:#000000;stroke-width:1;" x1="207.5" x2="207.5" y1="491.11" y2="483.11"/><line style="stroke:#000000;stroke-width:1;" x1="207.5" x2="213.5" y1="534.8" y2="542.8"/><line style="stroke:#000000;stroke-width:1;" x1="207.5" x2="201.5" y1="534.8" y2="542.8"/><line style="stroke:#000000;stroke-width:1;" x1="207.5" x2="207.5" y1="534.8" y2="542.8"/><ellipse cx="207.5" cy="528.8" fill="none" rx="4" ry="4" style="stroke:#000000;stroke-width:1;"/><text fill="#000000" font-family="Verdana" font-size="13" lengthAdjust="spacing" textLength="55.0278" x="151.5" y="509.0269">contains</text></g><!--SRC=[fLNDRjf04BxxAQOdGWKLZPIBfKOYG9GqY501wW5nM7i7lCAxQ-skIqXIgG_H9-oJTDOs652RDEh5X_dcvvjlPjRlN88I8KkPK46G28uG2nEd6DYrK1apJ48g5BfjXg2DItGGe7B2RM5cqS1J0F0URda8UIuupCTt2xAqsuLv89b8G_Z6J9mmStP-ST64-Mnq-sKsM1GEOsRjHXj-msnox5V0VM69s7R49DRenqwdH7i6cKFUTI4u8T4w9ZFt2FF-uBex6qv1wSrPSn5ytnFkaVjAc-tBf8-hNNHEA0zPXEaHNfWdfCszuMX24ChL93g71AQQwvUBUqrhwFeEsfU5xSCjByllUZXrsjdtZbDyyCBGjupJCakHv0eXqZf5fcgEIvPQNBn5Ku1-Zdto387J5-QZsN3OlHeM6esDY3s0iP0ifNcrpfk77hKUapnopAvVbiIBTjgjj_rdf_yqiAkShz0Db7jjQLwTsvJkvt27IP7UpQ1t5q93g5XBR3mty253PR5nFEa_R7vNwbov0udF2uchX9UVV1F5_Q2DZSYSqAeKg6wpKLMfX_Z6cogk__cvtTPFvLw7e3VA7jaFvQlW_GqUXyQbMJoY3GfJ1UysX3oqSlH6sI1GcZREwGpqij2OY7Tpbq36LcW17uHr4EMEk08ZEy4-rdU_HGU_VlpqhrsCYKvv4RpK1fQvoms2yAiZQVZCQqPRmC5NgseQiKgShxfhWe8dY1mvZIZDqOPayEnRC4bqbWcrQi4OZTMAfIt2lcgpRi4zFRd6_ZNvWMW-dM7nsaAv8y0efjeIMp7FlTvH4GEIATB0yp_D7cddjFJfAqKfkiTipEYzv-ZF1JQ2DFJiVLTE6-gAMR3e_m44bnT1s1ab19GHSj_uvydzgBclzXi0]--></g></svg>